<svg width="24" height="24" viewBox="0 0 24 24" fill="none" xmlns="http://www.w3.org/2000/svg">
<path d="M8.85551 8.14645L12.002 11.2929L15.1484 8.14645L15.8555 8.85355L12.7091 12L15.8555 15.1464L15.1484 15.8536L12.002 12.7071L8.85551 15.8536L8.1484 15.1464L11.2948 12L8.1484 8.85355L8.85551 8.14645Z" fill="black"/>
<path fill-rule="evenodd" clip-rule="evenodd" d="M22.002 12C22.002 17.5228 17.5248 22 12.002 22C6.47911 22 2.00195 17.5228 2.00195 12C2.00195 6.47715 6.47911 2 12.002 2C17.5248 2 22.002 6.47715 22.002 12ZM21.002 12C21.002 16.9706 16.9725 21 12.002 21C7.03139 21 3.00195 16.9706 3.00195 12C3.00195 7.02944 7.03139 3 12.002 3C16.9725 3 21.002 7.02944 21.002 12Z" fill="black"/>
</svg>
